#N canvas 8 25 1154 973 12;
#X obj 61 20 bng 19 250 50 0 empty empty empty 0 -10 0 12 #fcfcfc #000000 #000000;
#X obj 61 60 s play;
#X obj 272 237 catch~ bus;
#X obj 272 268 *~ 0.01;
#X obj 288 303 dac~;
#X obj 37 113 partial 1 300 9000 400;
#X obj 36 146 partial 2.01 700 8000 100;
#X obj 36 182 partial 4.02 400 7000 32;
#X obj 36 219 partial 6.06 200 6000 20;
#X obj 34 258 partial 8.12 37 5000 17;
#X obj 209 60 s~ fundamental;
#X obj 34 296 partial 10.25 31 4000 12;
#X obj 36 335 partial 12.5 20 3000 7;
#X obj 37 373 partial 14.8 15 1500 5;
#X obj 38 413 partial 17 5 100 2;
#X obj 38 447 partial 19.02 2 500 0;
#X obj 208 15 sig~ 100;
#X connect 0 0 1 0;
#X connect 2 0 3 0;
#X connect 3 0 4 0;
#X connect 3 0 4 1;
#X connect 16 0 10 0;
