#N canvas 798 510 450 300 12;
#X obj 62 78 *~ \$1;
#X obj 126 255 throw~ bus;
#X obj 182 26 r play;
#X obj 186 66 del \$4;
#X obj 189 111 pack \$2 \$3;
#X msg 187 144 1 \$1 0 \, 0 \$2 \$1;
#X obj 186 184 vline~;
#X obj 131 222 *~;
#X obj 55 25 r~ fundamental;
#X obj 66 127 osc~;
#X connect 0 0 9 0;
#X connect 2 0 3 0;
#X connect 3 0 4 0;
#X connect 4 0 5 0;
#X connect 5 0 6 0;
#X connect 6 0 7 1;
#X connect 7 0 1 0;
#X connect 8 0 0 0;
#X connect 9 0 7 0;
