#N canvas 296 47 787 570 12;
#X obj 61 20 bng 19 250 50 0 empty empty empty 0 -10 0 12 #fcfcfc #000000 #000000;
#X obj 61 60 s play;
#X obj 208 15 phasor~ 100;
#X obj 209 60 s~ phase;
#X obj 37 113 spartial 1 300 9000 400;
#X obj 36 146 spartial 2.01 700 8000 100;
#X obj 272 237 catch~ bus;
#X obj 272 268 *~ 0.01;
#X obj 288 303 dac~;
#X obj 36 182 spartial 4.02 400 7000 32;
#X obj 36 219 spartial 6.06 200 6000 20;
#X obj 34 258 spartial 8.12 37 5000 17;
#X obj 34 296 spartial 10.25 31 3200 12;
#X obj 36 335 spartial 12.5 20 1600 7;
#X obj 37 373 spartial 14.8 15 800 5;
#X obj 38 413 spartial 17 5 600 2;
#X obj 38 447 spartial 19.02 2 300 0;
#X connect 0 0 1 0;
#X connect 2 0 3 0;
#X connect 6 0 7 0;
#X connect 7 0 8 0;
#X connect 7 0 8 1;
